<?xml version="1.0" encoding="utf-8"?>
<!-- Generator: Adobe Illustrator 27.5.0, SVG Export Plug-In . SVG Version: 6.00 Build 0)  -->
<svg version="1.1" id="Слой_1" xmlns="http://www.w3.org/2000/svg" xmlns:xlink="http://www.w3.org/1999/xlink" x="0px" y="0px"
	 viewBox="0 0 3400 2000" style="enable-background:new 0 0 3400 2000;" xml:space="preserve">
<rect x="0.001" style="fill:#FFFFFF;" width="3400" height="2000"/>
<g>
	<path style="fill:#DDE7FE;" d="M2799.392,1769.036c84.917,4.402,148.181-75.093,190.689-148.735
		c93.634-162.212,164.791-355.154,111.354-534.666c-43.755-146.99-164.727-261.695-207.168-409.069
		c-15.376-53.394-19.924-109.603-37.537-162.301c-34.61-103.552-121.779-187.994-226.38-219.296
		c-71.165-21.296-146.91-18.889-220.809-26.441c-281.03-28.719-548.3-202.447-826.582-153.842
		c-54.768,9.566-109.318,28.497-151.629,64.563c-30.105,25.661-52.699,58.774-76.535,90.344
		c-34.164,45.247-71.557,88.055-111.8,127.991c-44.005,43.669-91.922,84.246-146.885,112.927
		c-101.393,52.91-218.964,61.895-331.122,84.268c-112.158,22.373-229.831,65.175-292.775,160.664
		c-21.267,32.263-35.021,68.869-46.453,105.781c-92.374,298.248-29.104,635.112,156.498,886.184L2799.392,1769.036z"/>
	<g>
		<path style="fill:#BDD1F9;" d="M2808.466,1338.501c-0.187-0.019-0.373-0.057-0.56-0.114c-1.492-0.464-2.327-2.05-1.863-3.543
			c121.195-390.17,230.734-665.411,308.443-775.022c1.725-2.435,2.971-4.192,3.449-5.083c0.739-1.38,2.459-1.894,3.832-1.159
			c1.38,0.739,1.897,2.456,1.16,3.833c-0.646,1.203-1.842,2.89-3.822,5.683c-77.371,109.138-186.633,383.813-307.654,773.427
			C2811.045,1337.83,2809.777,1338.633,2808.466,1338.501z"/>
		<path style="fill:#BDD1F9;" d="M3168.158,540.185c-9.199,12.297-55.135,34.605-58.645,31.98s4.913-52.993,14.111-65.29
			c9.199-12.297,26.624-14.81,38.922-5.611C3174.844,510.461,3177.357,527.887,3168.158,540.185z"/>
		<path style="fill:#BDD1F9;" d="M3079.52,577.02c4.381,15.087-5.682,66.353-9.987,67.603c-4.307,1.251-40.268-36.647-44.649-51.734
			c-4.383-15.087,4.296-30.871,19.383-35.253C3059.354,553.254,3075.137,561.933,3079.52,577.02z"/>
		<path style="fill:#BDD1F9;" d="M3133.223,667.324c-15.688,0.873-63.37-20.476-63.619-24.953
			c-0.248-4.478,44.773-30.981,60.459-31.853c15.688-0.872,29.111,11.137,29.982,26.824
			C3160.918,653.028,3148.908,666.452,3133.223,667.324z"/>
		<path style="fill:#BDD1F9;" d="M2942.813,835.108c10.043,24.384,2.525,111.754-4.435,114.621s-73.826-53.87-83.868-78.254
			c-10.042-24.384,1.584-52.293,25.969-62.335C2904.862,799.097,2932.771,810.724,2942.813,835.108z"/>
		<path style="fill:#BDD1F9;" d="M3048.768,976.088c-26.02,4.293-109.453-22.706-110.678-30.132
			c-1.226-7.427,69.11-59.799,95.129-64.092c26.02-4.293,50.594,13.319,54.887,39.338
			C3092.398,947.221,3074.787,971.794,3048.768,976.088z"/>
		<path style="fill:#BDD1F9;" d="M2873.367,932.319c18.556,26.403,33.115,132.724,25.579,138.019
			c-7.536,5.297-102.638-44.42-121.193-70.823s-12.194-62.85,14.209-81.405C2818.365,899.555,2854.812,905.917,2873.367,932.319z"/>
		<path style="fill:#BDD1F9;" d="M3025.043,1116.956c-32.213,1.95-130.371-41.418-130.928-50.612s91.653-64.088,123.865-66.039
			c32.213-1.95,59.906,22.583,61.857,54.794C3081.787,1087.312,3057.255,1115.006,3025.043,1116.956z"/>
		<path style="fill:#BDD1F9;" d="M2829.775,1059.514c18.556,26.403,33.115,132.723,25.578,138.02
			c-7.535,5.296-102.637-44.421-121.191-70.823c-18.557-26.403-12.194-62.85,14.208-81.405
			C2774.773,1026.749,2811.22,1033.11,2829.775,1059.514z"/>
		<path style="fill:#BDD1F9;" d="M2981.451,1244.15c-32.213,1.95-130.37-41.418-130.928-50.612
			c-0.557-9.194,91.653-64.089,123.865-66.039c32.213-1.95,59.906,22.583,61.857,54.795
			C3038.195,1214.506,3013.664,1242.2,2981.451,1244.15z"/>
		<path style="fill:#BDD1F9;" d="M2735.293,1218.984c27.214,17.345,81.173,110.104,76.223,117.872
			c-4.951,7.768-111.82-1.978-139.033-19.322c-27.215-17.345-35.215-53.467-17.87-80.681
			C2671.957,1209.641,2708.08,1201.64,2735.293,1218.984z"/>
		<path style="fill:#BDD1F9;" d="M2942.771,1369.998c-31.716,5.962-134.526-24.795-136.228-33.848
			c-1.702-9.053,82.922-75.044,114.638-81.006c31.715-5.962,62.26,14.916,68.221,46.632
			C2995.364,1333.492,2974.486,1364.036,2942.771,1369.998z"/>
		<path style="fill:#BDD1F9;" d="M3037.349,657.382c4.453,15.329-5.771,67.416-10.146,68.687
			c-4.376,1.271-40.912-37.234-45.364-52.563c-4.453-15.329,4.364-31.365,19.693-35.817
			C3016.86,633.235,3032.896,642.053,3037.349,657.382z"/>
		<path style="fill:#BDD1F9;" d="M3089.838,750.085c-15.938,0.887-64.385-20.804-64.639-25.353
			c-0.254-4.549,45.49-31.477,61.428-32.363c15.938-0.886,29.578,11.315,30.464,27.253
			C3117.977,735.56,3105.775,749.199,3089.838,750.085z"/>
		<path style="fill:#BDD1F9;" d="M2989.369,731.932c8.09,21.186-0.315,96.128-6.362,98.437
			c-6.047,2.309-62.267-47.952-70.357-69.138c-8.091-21.186,2.524-44.919,23.71-53.01
			C2957.546,700.13,2981.279,710.746,2989.369,731.932z"/>
		<path style="fill:#BDD1F9;" d="M3074.199,863.823c-22.643,1.259-91.471-29.556-91.83-36.019s64.628-44.719,87.271-45.979
			c22.643-1.259,42.02,16.076,43.278,38.719C3114.178,843.187,3096.843,862.563,3074.199,863.823z"/>
	</g>
	<g>
		<path style="fill:#0B0755;" d="M385.427,1420.189c0.075-0.037,0.147-0.082,0.216-0.136c0.552-0.429,0.651-1.225,0.222-1.776
			c-112.22-144.222-201.449-242.172-251.251-275.807c-1.106-0.748-1.904-1.287-2.245-1.585c-0.527-0.461-1.328-0.405-1.787,0.119
			c-0.461,0.527-0.407,1.327,0.119,1.787c0.459,0.402,1.227,0.92,2.495,1.776c49.587,33.491,138.61,131.248,250.67,275.264
			C384.242,1420.315,384.899,1420.452,385.427,1420.189z"/>
		<path style="fill:#0B0755;" d="M109.052,1142.709c5.789,3.697,28.533,5.797,29.588,4.145c1.055-1.652-10.408-21.408-16.197-25.107
			c-5.788-3.697-13.479-2.003-17.176,3.785C101.569,1131.32,103.264,1139.011,109.052,1142.709z"/>
		<path style="fill:#0B0755;" d="M151.961,1144.158c0.543,7.007,12.834,26.88,14.834,26.725c2-0.155,11.08-21.686,10.537-28.691
			c-0.544-7.007-6.664-12.245-13.669-11.702C156.656,1131.032,151.417,1137.152,151.961,1144.158z"/>
		<path style="fill:#0B0755;" d="M143.713,1190.422c6.703-2.106,23.299-18.557,22.697-20.471
			c-0.602-1.914-23.624-5.912-30.328-3.805c-6.704,2.106-10.43,9.249-8.323,15.953
			C129.866,1188.803,137.009,1192.529,143.713,1190.422z"/>
		<path style="fill:#0B0755;" d="M249.858,1230.647c-0.361,11.789,16.555,47.177,19.92,47.28
			c3.365,0.102,22.413-34.185,22.774-45.974c0.361-11.79-8.904-21.64-20.694-22.001
			C260.068,1209.593,250.219,1218.857,249.858,1230.647z"/>
		<path style="fill:#0B0755;" d="M227.725,1306.358c11.568-2.304,42.237-26.754,41.58-30.056
			c-0.658-3.302-38.354-14.14-49.921-11.836c-11.568,2.303-19.079,13.548-16.775,25.116
			C204.912,1301.15,216.157,1308.661,227.725,1306.358z"/>
		<path style="fill:#0B0755;" d="M294.247,1260.395c-3.606,13.977,7.055,60.775,11.044,61.805
			c3.989,1.029,35.962-34.77,39.568-48.745c3.607-13.977-4.8-28.229-18.777-31.836
			C312.107,1238.012,297.853,1246.418,294.247,1260.395z"/>
		<path style="fill:#0B0755;" d="M259.855,1361.585c13.791-4.26,48.045-37.883,46.829-41.819
			c-1.216-3.937-48.465-12.383-62.256-8.122c-13.792,4.26-21.518,18.894-17.257,32.685
			C231.431,1358.119,246.064,1365.846,259.855,1361.585z"/>
		<path style="fill:#0B0755;" d="M332.54,1306.767c-3.606,13.976,7.055,60.775,11.044,61.805
			c3.99,1.029,35.963-34.769,39.569-48.746c3.606-13.976-4.801-28.229-18.777-31.836
			C350.399,1284.384,336.146,1292.791,332.54,1306.767z"/>
		<path style="fill:#0B0755;" d="M298.148,1407.958c13.791-4.261,48.045-37.884,46.829-41.82
			c-1.216-3.936-48.465-12.382-62.256-8.122c-13.791,4.26-21.517,18.893-17.257,32.685
			C269.724,1404.491,284.357,1412.218,298.148,1407.958z"/>
		<path style="fill:#0B0755;" d="M397.221,1358.63c-8.658,11.549-16.626,58.881-13.33,61.353
			c3.296,2.471,46.495-18.45,55.153-29.999c8.658-11.55,6.314-27.931-5.235-36.589
			C422.26,1344.737,405.879,1347.081,397.221,1358.63z"/>
		<path style="fill:#0B0755;" d="M334.172,1454.54c14.216-2.503,52.404-31.579,51.689-35.637
			c-0.714-4.058-46.537-18.345-60.752-15.842c-14.216,2.503-23.711,16.056-21.208,30.271
			C306.404,1447.548,319.957,1457.043,334.172,1454.54z"/>
		<path style="fill:#0B0755;" d="M182.277,1171.151c0.552,7.118,13.04,27.311,15.072,27.152
			c2.032-0.157,11.258-22.033,10.706-29.151c-0.552-7.118-6.77-12.441-13.888-11.89
			C187.048,1157.815,181.725,1164.033,182.277,1171.151z"/>
		<path style="fill:#0B0755;" d="M174.916,1218.229c6.811-2.142,23.672-18.855,23.061-20.8c-0.611-1.944-24.002-6.007-30.814-3.866
			c-6.811,2.141-10.597,9.398-8.456,16.209C160.848,1216.583,168.105,1220.369,174.916,1218.229z"/>
		<path style="fill:#0B0755;" d="M214.11,1194.796c-0.048,10.144,15.281,40.188,18.176,40.202
			c2.895,0.014,18.507-29.886,18.556-40.029c0.047-10.143-8.136-18.404-18.279-18.452
			C222.419,1176.469,214.158,1184.652,214.11,1194.796z"/>
		<path style="fill:#0B0755;" d="M199.386,1263.373c9.676-3.041,33.631-26.787,32.763-29.55c-0.868-2.762-34.1-8.533-43.777-5.492
			c-9.676,3.042-15.055,13.352-12.014,23.028C179.399,1261.035,189.709,1266.414,199.386,1263.373z"/>
	</g>
	<g>
		<path style="fill:#BDD1F9;" d="M628.542,1142.221c0.13,0.024,0.265,0.036,0.402,0.034c1.107-0.018,1.989-0.929,1.971-2.035
			c-4.582-289.123-24.145-497.872-55.084-587.793c-0.687-1.997-1.184-3.439-1.33-4.139c-0.227-1.084-1.293-1.776-2.372-1.551
			c-1.084,0.227-1.778,1.289-1.551,2.372c0.198,0.945,0.675,2.33,1.463,4.621c30.805,89.533,50.29,297.842,54.866,586.553
			C626.924,1141.252,627.625,1142.049,628.542,1142.221z"/>
		<path style="fill:#BDD1F9;" d="M543.293,528.398c3.797,10.184,30.55,34.485,33.457,33.402c2.907-1.084,7.22-36.969,3.422-47.152
			c-3.797-10.184-15.131-15.362-25.315-11.564C544.673,506.88,539.496,518.214,543.293,528.398z"/>
		<path style="fill:#BDD1F9;" d="M596.153,571.073c-5.982,9.373-9.36,46.194-6.685,47.901c2.675,1.707,34.647-16.867,40.629-26.24
			c5.982-9.374,3.232-21.821-6.141-27.803C614.583,558.95,602.135,561.699,596.153,571.073z"/>
		<path style="fill:#BDD1F9;" d="M541.692,621.703c10.48,3.717,47.116-1.282,48.177-4.273c1.061-2.991-24.235-29.959-34.715-33.677
			c-10.479-3.717-21.988,1.765-25.706,12.245C525.73,606.477,531.212,617.986,541.692,621.703z"/>
		<path style="fill:#BDD1F9;" d="M637.582,773.583c-11.678,14.56-23.977,75.393-19.821,78.727
			c4.156,3.333,60.869-21.878,72.547-36.438c11.678-14.56,9.341-35.829-5.218-47.507C670.53,756.688,649.26,759.023,637.582,773.583
			z"/>
		<path style="fill:#BDD1F9;" d="M537.54,848.221c16.815,8.099,78.857,6.384,81.168,1.584c2.311-4.8-35.023-54.379-51.839-62.479
			c-16.815-8.099-37.013-1.033-45.111,15.782C513.658,819.925,520.724,840.122,537.54,848.221z"/>
		<path style="fill:#BDD1F9;" d="M665.38,853.438c-17.861,14.235-48.929,83.541-44.866,88.639
			c4.063,5.098,78.554-9.722,96.416-23.956c17.862-14.235,20.802-40.254,6.567-58.116
			C709.261,842.143,683.242,839.203,665.38,853.438z"/>
		<path style="fill:#BDD1F9;" d="M525.59,948.617c21.488,7.741,96.791-2.158,99-8.291c2.21-6.134-49.477-61.783-70.966-69.524
			c-21.488-7.742-45.184,3.402-52.925,24.891C492.957,917.18,504.102,940.875,525.59,948.617z"/>
		<path style="fill:#BDD1F9;" d="M669.646,948.505c-17.861,14.234-48.93,83.54-44.866,88.639
			c4.063,5.099,78.554-9.722,96.416-23.956c17.861-14.235,20.801-40.254,6.567-58.116
			C713.528,937.21,687.508,934.269,669.646,948.505z"/>
		<path style="fill:#BDD1F9;" d="M529.856,1043.684c21.488,7.741,96.791-2.158,99-8.291c2.21-6.134-49.478-61.783-70.966-69.524
			c-21.488-7.742-45.183,3.402-52.925,24.891C497.224,1012.247,508.368,1035.942,529.856,1043.684z"/>
		<path style="fill:#BDD1F9;" d="M702.045,1075.63c-21.937,6.358-77.062,58.605-75.247,64.867
			c1.815,6.262,76.335,20.933,98.273,14.574c21.937-6.358,34.566-29.297,28.208-51.233
			C746.92,1081.9,723.982,1069.271,702.045,1075.63z"/>
		<path style="fill:#BDD1F9;" d="M531.055,1136.857c20.352,10.366,96.301,9.959,99.26,4.15c2.959-5.81-41.366-67.484-61.718-77.852
			c-20.352-10.366-45.254-2.272-55.622,18.079C502.609,1101.587,510.703,1126.49,531.055,1136.857z"/>
		<path style="fill:#BDD1F9;" d="M608.784,634.05c-6.078,9.524-9.51,46.935-6.792,48.669c2.718,1.735,35.203-17.137,41.28-26.661
			c6.078-9.523,3.284-22.171-6.239-28.248C627.509,621.733,614.861,624.526,608.784,634.05z"/>
		<path style="fill:#BDD1F9;" d="M554.669,686.552c10.648,3.777,47.871-1.303,48.949-4.342c1.078-3.039-24.623-30.439-35.271-34.216
			c-10.647-3.777-22.341,1.793-26.118,12.44C538.452,671.082,544.022,682.775,554.669,686.552z"/>
		<path style="fill:#BDD1F9;" d="M626.518,694.238c-9.715,12.776-18.935,65.347-15.289,68.12
			c3.647,2.773,51.841-20.162,61.556-32.939c9.715-12.776,7.233-31.009-5.543-40.724
			C654.466,678.98,636.232,681.461,626.518,694.238z"/>
		<path style="fill:#BDD1F9;" d="M542.632,766.911c15.127,5.366,68.01-1.851,69.541-6.168c1.532-4.317-34.983-43.245-50.11-48.611
			c-15.127-5.366-31.739,2.547-37.105,17.674C519.592,744.933,527.505,761.545,542.632,766.911z"/>
	</g>
	<g>
		<path style="fill:#7C9AF2;" d="M2659.594,1681.721c0,0-193.563-330.411,423.559-565.182
			C3083.152,1116.539,3071.172,1796.491,2659.594,1681.721z"/>
		<path style="fill:#91B5F8;" d="M3083.936,1115.469l-441.183,521.004C2614.392,1538.688,2603.777,1298.135,3083.936,1115.469z"/>
		<path style="fill:#060633;" d="M2661.383,1615.586c-0.254,0-0.511-0.087-0.719-0.265c-0.469-0.396-0.526-1.099-0.131-1.567
			l422.553-499.005c0.402-0.468,1.104-0.524,1.568-0.129c0.471,0.396,0.526,1.098,0.131,1.567l-422.553,499.005
			C2662.012,1615.452,2661.698,1615.586,2661.383,1615.586z"/>
		<path style="fill:#060633;" d="M2863.343,1377.083c-0.547,0-1.025-0.406-1.099-0.965c-0.083-0.609,0.345-1.169,0.953-1.25
			l180.028-24.125c0.603-0.078,1.169,0.346,1.249,0.955c0.083,0.609-0.346,1.169-0.953,1.25l-180.028,24.125
			C2863.443,1377.08,2863.393,1377.083,2863.343,1377.083z"/>
		<path style="fill:#060633;" d="M2772.832,1483.974c-0.073,0-0.149-0.008-0.224-0.023c-0.602-0.122-0.991-0.71-0.868-1.311
			l35.568-174.723c0.124-0.603,0.728-0.992,1.313-0.868c0.602,0.122,0.99,0.709,0.869,1.312l-35.569,174.723
			C2773.813,1483.611,2773.35,1483.974,2772.832,1483.974z"/>
	</g>
	<g>
		<path style="fill:#91B5F8;" d="M2749.476,1684.203c0,0-44.122-272.184,431.309-269.472
			C3180.784,1414.731,2996.041,1868.232,2749.476,1684.203z"/>
		<path style="fill:#7C9AF2;" d="M3180.784,1414.731l-431.309,269.472C2749.476,1684.203,2957.345,1895.612,3180.784,1414.731z"/>
		<path style="fill:#91B5F8;" d="M3083.459,1532.867c-0.066,0.016-0.135,0.026-0.203,0.035l-116.708,12.287
			c-0.885,0.093-1.677-0.548-1.769-1.432c-0.094-0.885,0.561-1.667,1.431-1.769l116.708-12.287c0.885-0.093,1.676,0.548,1.769,1.431
			C3084.772,1531.947,3084.233,1532.684,3083.459,1532.867z"/>
		<path style="fill:#91B5F8;" d="M2951.279,1656.256c-0.116,0.027-0.238,0.043-0.365,0.043l-155.297,0.688
			c-0.887,0.006-1.612-0.712-1.615-1.6c-0.003-0.887,0.702-1.615,1.603-1.615l155.298-0.69c0.887-0.003,1.611,0.715,1.615,1.602
			C2952.521,1655.445,2951.991,1656.087,2951.279,1656.256z"/>
	</g>
	<g>
		<path style="fill:#6D8AD1;" d="M644.855,1710.431c0,0,322.287-286.166-256.365-752.458
			C388.491,957.973,164.385,1689.847,644.855,1710.431z"/>
		<path style="fill:#91B5F8;" d="M388.025,956.555l290.62,711.318C743.071,1573.105,838.251,1319.357,388.025,956.555z"/>
		<path style="fill:#060633;" d="M666.372,1638.949c-0.439,0-0.854-0.26-1.03-0.691L386.995,956.975
			c-0.232-0.568,0.041-1.218,0.608-1.45c0.573-0.231,1.219,0.039,1.451,0.609l278.348,681.283c0.232,0.568-0.041,1.218-0.608,1.45
			C666.655,1638.924,666.514,1638.949,666.372,1638.949z"/>
		<path style="fill:#060633;" d="M533.335,1313.326c-0.163,0-0.326-0.035-0.482-0.11l-184.265-88.548
			c-0.554-0.267-0.786-0.932-0.519-1.485c0.267-0.554,0.93-0.787,1.484-0.521l184.265,88.549c0.554,0.266,0.787,0.931,0.519,1.484
			C534.146,1313.094,533.748,1313.326,533.335,1313.326z"/>
		<path style="fill:#060633;" d="M592.961,1459.262c-0.043,0-0.084-0.003-0.128-0.008c-0.61-0.07-1.049-0.621-0.98-1.231
			l22.815-199.385c0.07-0.612,0.628-1.052,1.232-0.979c0.611,0.069,1.05,0.621,0.98,1.231l-22.816,199.385
			C594,1458.843,593.518,1459.262,592.961,1459.262z"/>
	</g>
	<g>
		<path style="fill:#3B4ACC;" d="M599.914,1705.343c0,0,93.417-295.954-436.511-370.274
			C163.402,1335.068,295.377,1870.184,599.914,1705.343z"/>
		<path style="fill:#7C9AF2;" d="M163.402,1335.068l436.511,370.274C599.914,1705.343,334.018,1906.974,163.402,1335.068z"/>
		<path style="fill:#3B4ACC;" d="M252.574,1482.468c0.073,0.028,0.147,0.053,0.223,0.073l127.978,32.669
			c0.97,0.248,1.956-0.337,2.203-1.306c0.248-0.971-0.353-1.948-1.306-2.203l-127.979-32.669c-0.971-0.248-1.956,0.337-2.203,1.306
			C251.262,1481.23,251.743,1482.139,252.574,1482.468z"/>
		<path style="fill:#3B4ACC;" d="M379.712,1641.389c0.125,0.05,0.258,0.087,0.399,0.108l172.842,26.029
			c0.987,0.149,1.911-0.531,2.06-1.519c0.148-0.987-0.52-1.914-1.523-2.061l-172.842-26.031c-0.987-0.148-1.912,0.533-2.06,1.521
			C378.461,1640.284,378.946,1641.085,379.712,1641.389z"/>
	</g>
	<ellipse style="fill:#BDD1F9;" cx="1640.219" cy="1739.167" rx="1308.427" ry="98.878"/>
	<g>
		<path style="fill:#FB9391;" d="M1655.683,1482.522c0,0-14.946,191.582,5.435,211.963c20.381,20.381,50.263,39.403,52.985,51.632
			c2.723,12.229-88.313-1.358-96.465-13.587c-8.152-12.228-6.794-32.61-14.946-89.677s-20.381-160.331-20.381-160.331H1655.683z"/>
		<path style="fill:#0B0755;" d="M1714.104,1746.117c-1.853-8.321-16.284-19.79-31.736-32.69
			c-3.408,26.16-54.775-0.663-72.419-10.72c1.774,14.846,3.44,23.449,7.689,29.823
			C1625.791,1744.759,1716.826,1758.346,1714.104,1746.117z"/>
		<path style="fill:#FB9391;" d="M1552.354,1482.522c0,0-14.946,191.582,5.435,211.963c20.381,20.381,50.263,39.403,52.985,51.632
			c2.723,12.229-88.313-1.358-96.465-13.587c-8.152-12.228-6.794-32.61-14.946-89.677s-20.381-160.331-20.381-160.331H1552.354z"/>
		<path style="fill:#0B0755;" d="M1610.774,1746.117c-1.853-8.321-16.284-19.79-31.736-32.69
			c-3.408,26.16-54.775-0.663-72.419-10.72c1.774,14.846,3.44,23.449,7.689,29.823
			C1522.462,1744.759,1613.497,1758.346,1610.774,1746.117z"/>
		<g>
			<rect x="1252.317" y="1222.642" style="fill:#060633;" width="22.248" height="103.878"/>
			<path style="fill:#FA7267;" d="M1436.399,1390.887h-252.013c-10.809,0-19.57-8.762-19.57-19.57v-47.941
				c0-10.809,8.762-19.57,19.57-19.57h252.013c10.809,0,19.57,8.762,19.57,19.57v47.941
				C1455.97,1382.125,1447.208,1390.887,1436.399,1390.887z"/>
			<path style="fill:#FA7267;" d="M1340.465,1241.813h-174.354c-14.28,0-25.857-11.576-25.857-25.856v-174.354
				c0-14.28,11.577-25.856,25.857-25.856h174.354c14.28,0,25.856,11.576,25.856,25.856v174.354
				C1366.321,1230.236,1354.745,1241.813,1340.465,1241.813z"/>
			<rect x="1305.242" y="1390.886" style="fill:#060633;" width="22.248" height="314.389"/>
			<path style="fill:#060633;" d="M1427.209,1711.949h-221.207c-3.688,0-6.675-2.988-6.675-6.675c0-3.686,2.987-6.674,6.675-6.674
				h221.207c3.688,0,6.675,2.988,6.675,6.674C1433.884,1708.961,1430.896,1711.949,1427.209,1711.949z"/>
			<path style="fill:#060633;" d="M1393.948,1725.803c0-8.979,7.28-16.259,16.26-16.259c8.979,0,16.259,7.279,16.259,16.259
				c0,8.98-7.279,16.26-16.259,16.26C1401.228,1742.063,1393.948,1734.783,1393.948,1725.803z"/>
			<path style="fill:#060633;" d="M1210.799,1725.803c0-8.979,7.279-16.259,16.259-16.259c8.98,0,16.26,7.279,16.26,16.259
				c0,8.98-7.28,16.26-16.26,16.26C1218.078,1742.063,1210.799,1734.783,1210.799,1725.803z"/>
			<path style="fill:#060633;" d="M1300.106,1725.803c0-8.979,7.28-16.259,16.259-16.259s16.26,7.279,16.26,16.259
				c0,8.98-7.28,16.26-16.26,16.26S1300.106,1734.783,1300.106,1725.803z"/>
		</g>
		<path style="fill:#060633;" d="M1281.371,1222.642c0,0-9.235,95.045,29.022,117.472c38.257,22.427,149.855,50.192,155.729,69.415
			c5.874,19.224,8.595,134.025,8.595,134.025s94.995,27.232,202.855-14.417c0,0,0-181.792-30.97-208.246
			c-64.961-55.489-160.189-87.57-160.189-87.57L1281.371,1222.642z"/>
		<path style="fill:#FB9391;" d="M1648.237,1057.142c0,0,0.309-26.927,2.58-36.631c2.271-9.705-2.736-20.793,3.005-21.447
			c5.74-0.653,9.109,18.224,9.109,18.224s13.102-15.477,16.405-20.845c3.304-5.369,11.65-13.463,15.767-11.353
			c4.115,2.11-13.555,26.787-13.555,26.787s16.919-19.315,21.134-18.178c4.214,1.137-13.704,28.877-13.704,28.877
			s17.041-21.485,19.848-22.003c2.807-0.518,3.582,3.053-0.605,12.124c-4.186,9.072-10.8,17.258-10.8,17.258
			s13.105-14.201,15.271-15.355c2.167-1.154,5.995-1.165-1.627,11.617c-7.622,12.781-28.61,37.723-44.156,45.932L1648.237,1057.142z
			"/>
		<path style="fill:#FB9391;" d="M1387.816,1279.262c0,0,23.948,12.314,31.614,18.685c7.666,6.369,19.823,6.848,17.84,12.274
			c-1.982,5.428-20.373,0.002-20.373,0.002s7.986,18.639,11.313,23.994c3.325,5.354,6.834,16.439,3.106,19.178
			c-3.729,2.738-17.902-24.101-17.902-24.101s9.713,23.771,6.812,27.031c-2.901,3.262-19.705-25.167-19.705-25.167
			s11.6,24.849,10.809,27.59c-0.791,2.742-4.332,1.839-10.575-5.962c-6.243-7.8-10.608-17.375-10.608-17.375
			s6.844,18.071,6.908,20.524c0.064,2.454-1.638,5.883-9.664-6.648c-8.026-12.532-20.953-42.456-21.347-60.032L1387.816,1279.262z"
			/>
		<path style="fill:#4851EC;" d="M1376.315,896.924c0,0-89.154,25.63-112.874,54.464c-23.72,28.834-52.554,173.314-44.545,211.605
			c8.01,38.29,140.967,147.219,140.967,147.219l43.251-35.63l-17.621-32.77c0,0,74.221,17.035,121.21,0l-2.136-89.354
			c0,0,20.291,40.282,65.144,40.282s107.861-120.592,107.861-120.592l-33.106-25.715c0,0-44.44,43.229-74.283,51.319
			c-6.379,1.729-12.958-1.948-14.662-8.333c-8.311-31.135-36.325-130.708-60.565-154.051
			C1466.123,907.603,1376.315,896.924,1376.315,896.924z"/>
		<path style="fill:#060633;" d="M1504.568,1153.014c-0.3,0-0.545-0.236-0.557-0.537l-2.135-63.307
			c-0.003-0.1,0.021-0.2,0.069-0.288c0.11-0.201,11.144-20.403,11.144-40.313c0-19.831-22.042-42.101-22.264-42.323
			c-0.217-0.217-0.217-0.569,0-0.786c0.217-0.218,0.569-0.218,0.786,0c0.226,0.226,22.59,22.823,22.59,43.109
			c0,19.332-10.229,38.888-11.209,40.714l2.132,63.156c0.011,0.306-0.23,0.563-0.537,0.574
			C1504.582,1153.014,1504.575,1153.014,1504.568,1153.014z"/>
		<path style="fill:#060633;" d="M1385.493,1242.369c-0.174,0-0.346-0.082-0.454-0.235l-64.701-91.91
			c-2.931-4.161-4.297-9.247-3.848-14.317l9.981-112.481c0.026-0.307,0.274-0.531,0.604-0.505c0.304,0.027,0.53,0.297,0.504,0.602
			l-9.981,112.482c-0.426,4.811,0.869,9.633,3.647,13.579l64.701,91.91c0.179,0.251,0.117,0.599-0.135,0.776
			C1385.717,1242.337,1385.604,1242.369,1385.493,1242.369z"/>
		<path style="fill:#0B0755;" d="M1423.659,837.837c2.384-0.487,47.36-25.054,28.983-83.61
			c-18.376-58.557-72.234-52.952-98.313-43.449c-26.078,9.502-64.031,58.883-35.428,100.624
			c28.605,41.741,55.705,53.926,55.705,53.926L1423.659,837.837z"/>
		<g>
			<path style="fill:#EA6868;" d="M1450.293,800.668c0,0,4.706-7.608,8.701-4.697c10.188,7.424-0.257,18.025-6.818,20.442
				L1450.293,800.668z"/>
			<path style="fill:#FB9391;" d="M1384.824,712.148c-30.391,2.938-54.163,28.614-54.821,59.139
				c-0.217,10.037,2.002,19.49,6.061,27.864c9.043,20.902,16.505,37.736,25.507,49.881c9.126,12.311,13.599,27.45,11.907,42.682
				l-1.709,15.381c35.913,16.575,50.922,1.345,50.922,1.345l-1.197-38.294l0,0c38.102-5.756,30.802-76.177,30.149-97.04l-0.06,0.013
				c0.005-0.783,0.011-1.566-0.014-2.356C1450.479,735.85,1420.162,708.732,1384.824,712.148z"/>
			<path style="fill:#0B0755;" d="M1382.398,774.129c-7.203,7.808-13.415,16.466-19.606,25.099
				c-6.552,9.136-13.323,18.828-14.5,30.008c-10.095-7.187-16.759-18.172-22.429-29.19c-2.629-5.109-5.135-10.379-6.126-16.038
				c-1.402-8.016,0.323-16.211,2.041-24.164c2.218-10.265,4.639-20.961,11.327-29.058c4.43-5.361,10.441-9.189,16.656-12.311
				c14.5-7.284,30.944-11.19,47.078-9.45c16.134,1.739,31.862,9.445,41.855,22.231c12.87,16.467,14.937,38.652,16.506,59.492
				c-2.372-8.596-8.323-15.676-14.112-22.457c-3.766-4.411-7.63-8.906-12.636-11.834c-8.536-4.992-10.842-3.773-25.831-13.265
				C1399.192,756.175,1391.41,764.361,1382.398,774.129z"/>
			<path style="fill:#060633;" d="M1442.63,801.033c0.191-2.924-2.025-5.45-4.949-5.642c-2.925-0.191-5.45,2.024-5.642,4.949
				c-0.191,2.924,2.024,5.45,4.949,5.642C1439.912,806.174,1442.438,803.958,1442.63,801.033z"/>
			<path style="fill:#060633;" d="M1390.359,808.737c0.192-2.925-2.023-5.451-4.948-5.642c-2.925-0.191-5.451,2.024-5.643,4.949
				c-0.191,2.925,2.025,5.45,4.949,5.642C1387.642,813.877,1390.169,811.661,1390.359,808.737z"/>
			<path style="fill:#EA6868;" d="M1433.459,835.6c0,0-7.443-3.854-10.077-2.875c-2.634,0.979-3.838,4.372-3.838,4.372
				s-1.893-3.117-5.185-2.881c-3.292,0.235-13.729,7.378-13.729,7.378s11.545,13.101,21.342,10.427
				C1431.95,849.297,1433.459,835.6,1433.459,835.6L1433.459,835.6z"/>
			<path style="fill:#0B0755;" d="M1374.257,803.706c-0.633,0.019-1.268-0.232-1.719-0.74c-0.81-0.912-0.726-2.306,0.184-3.116
				c0.273-0.242,6.854-5.921,16.727-5.796c1.218,0.014,2.195,1.014,2.181,2.232c-0.014,1.219-1.115,2.213-2.23,2.18
				c-8.227-0.096-13.693,4.636-13.747,4.685C1375.249,803.507,1374.754,803.69,1374.257,803.706z"/>
			<path style="fill:#0B0755;" d="M1427.632,793.71c-0.614-0.158-1.154-0.576-1.445-1.19c-0.524-1.102-0.055-2.417,1.046-2.94
				c0.329-0.156,8.146-3.802,17.677-0.905c1.169,0.354,1.826,1.585,1.473,2.752c-0.351,1.167-1.628,1.824-2.75,1.472
				c-7.885-2.397-14.438,0.637-14.506,0.668C1428.64,793.796,1428.114,793.834,1427.632,793.71z"/>
			<path style="fill:#EA6868;" d="M1414.863,828.197c6.238-1.148,8.177-5.927,8.285-8.646c0.02-0.476-0.145-0.939-0.458-1.299
				c-5.842-6.685-5.575-16.752-5.571-16.852c0.035-1.024-0.767-1.884-1.792-1.92c-1.01-0.039-1.882,0.763-1.92,1.788
				c-0.016,0.457-0.323,11.006,5.936,18.773c-0.321,1.475-1.725,4.798-7.692,4.69c-1.046-0.011-1.874,0.798-1.892,1.823
				s0.798,1.875,1.823,1.893C1412.789,828.468,1413.881,828.378,1414.863,828.197z"/>
			<path style="fill:#FFFFFF;" d="M1400.63,841.593c0,0,20.11-2.576,32.829-5.993c0,0-5.077,10.747-12.781,11.461
				C1412.975,847.775,1400.63,841.593,1400.63,841.593z"/>
			<path style="fill:#060633;" d="M1384.802,826.903c-3.419,0-6.774-0.973-9.727-2.859c-4.083-2.607-6.905-6.649-7.945-11.379
				c-2.151-9.764,4.043-19.459,13.807-21.611c9.763-2.145,19.459,4.043,21.61,13.808l0,0c1.043,4.73,0.18,9.582-2.427,13.665
				c-2.607,4.082-6.649,6.904-11.381,7.946C1387.431,826.761,1386.11,826.903,1384.802,826.903z M1384.841,791.74
				c-1.21,0-2.436,0.129-3.666,0.4c-9.164,2.02-14.979,11.12-12.96,20.286c0.978,4.439,3.626,8.233,7.459,10.681
				c3.828,2.448,8.38,3.256,12.825,2.279c4.441-0.979,8.235-3.627,10.684-7.459c2.446-3.831,3.257-8.387,2.277-12.827l0,0
				C1399.714,797.164,1392.654,791.74,1384.841,791.74z"/>
			<path style="fill:#060633;" d="M1437.063,817.757c-3.42,0-6.774-0.973-9.728-2.86c-4.082-2.607-6.904-6.648-7.945-11.378
				c-2.151-9.764,4.043-19.459,13.807-21.611c4.73-1.046,9.582-0.179,13.664,2.428c4.082,2.607,6.905,6.65,7.945,11.38l0,0
				c1.043,4.73,0.181,9.583-2.427,13.665c-2.607,4.082-6.648,6.904-11.381,7.946
				C1439.691,817.614,1438.373,817.757,1437.063,817.757z M1437.132,782.589c-1.228,0-2.466,0.135-3.696,0.405
				c-9.165,2.02-14.978,11.12-12.96,20.285c2.021,9.167,11.125,14.983,20.285,12.96c4.44-0.979,8.234-3.627,10.683-7.459
				c2.447-3.831,3.257-8.387,2.277-12.827l0,0c-0.978-4.44-3.627-8.233-7.459-10.681
				C1443.492,783.502,1440.343,782.589,1437.132,782.589z"/>
			<polygon style="fill:#060633;" points="1345.443,813.521 1345.326,812.416 1367.205,810.137 1367.323,811.243 			"/>
			<path style="fill:#060633;" d="M1402.723,807.687l-0.738-0.83c9.479-8.46,18.261-3.478,18.351-3.43l-0.561,0.961
				C1419.441,804.194,1411.583,799.784,1402.723,807.687z"/>
			<path style="fill:#FB9391;" d="M1355.135,815.605c-1.044-1.935-2.802-3.381-4.866-4.14c-4.25-1.561-11.708-3.178-16.637,2.069
				c-7.232,7.699,8.403,27.018,22.94,16.719C1356.573,830.254,1360.681,825.881,1355.135,815.605z"/>
		</g>
		<path style="fill:#0B0755;" d="M1359.522,717.127c-4.434-20.125-24.342-32.845-44.467-28.411
			c-20.125,4.434-32.845,24.343-28.411,44.468c4.434,20.125,24.343,32.845,44.468,28.411
			C1351.236,757.161,1363.956,737.252,1359.522,717.127z"/>
	</g>
	<g>
		<path style="fill:#060633;" d="M1950.533,784.012c0.478,16.795,20.677,30.794,15.142,46.659
			c-1.229,3.522-3.668,6.557-4.655,10.154c-2.17,7.914,3.741,16.413,11.422,19.301c7.681,2.888,16.381,1.269,23.953-1.893
			c7.572-3.162,14.453-7.78,21.922-11.179c16.748-7.62,35.584-8.773,53.638-12.324c18.314-3.603,36.517-9.798,55.138-8.499
			c21.475,1.499,40.832,12.744,60.939,20.432c20.492,7.834,42.348,12.083,64.282,12.495c11.447,0.215,23.296-0.711,33.449-6.002
			c20.258-10.558,28.097-36.87,19.956-57.602c-4.643-11.823-13.848-21.506-24.869-27.655c-9.837-5.487-22.387-7.329-29.809-16.525
			c-10.392-12.875-4.018-32.118-8.12-48.146c-3.452-13.486-14.804-24.565-27.347-29.934c-11.715-5.014-26.279-5.71-35.078-16.023
			c-9.563-11.209-6.387-26.717-8.105-40.172c-2.459-19.239-15.236-36.267-31.697-46.525c-4.914-3.063-10.245-5.636-15.832-7.686
			c-36.946-13.555-85.088-4.208-98.053,38.039c-3.972,12.944-3.684,27.415-10.762,38.958c-7.689,12.542-23.174,19.964-27.444,34.042
			c-5.365,17.692,9.804,36.693,4.8,54.491c-3.271,11.632-14.127,19.154-23.743,26.47
			C1960.043,762.202,1950.191,771.935,1950.533,784.012z"/>
		<path style="fill:#FB9391;" d="M2151.721,1660.652c0,0-1.223,88.769-10.55,98.47c-5.324,5.538-111.179,17.162-114.164,2.985
			c-2.984-14.178,77.602-33.578,83.571-59.694c5.969-26.116,2.984-50.739,2.984-50.739L2151.721,1660.652z"/>
		<path style="fill:#FB9391;" d="M1865.201,1637.779c0,0-21.298,46.854-25.557,55.373c-4.259,8.519-8.519,38.335-17.038,39.4
			c-8.518,1.064-100.098,10.648-102.227-4.26c-2.129-14.908,80.931-39.4,86.255-51.114c5.324-11.713,25.557-60.697,25.557-60.697
			L1865.201,1637.779z"/>
		<path style="fill:#91B5F8;" d="M2174.804,1024.449c0,0,59.693,99.786,65.039,151.461c5.346,51.674-32.965,245.009-32.52,257.482
			c0.445,12.473,5.412,40.983,0.256,60.584c-5.156,19.601-37.23,78.403-32.775,94.441c4.455,16.036-8.019,92.658-8.019,92.658
			h-69.493c0,0,8.909-90.877,0-130.078c-8.91-39.202-8.91-103.349-8.91-130.078c0-26.728,0-199.571,0-199.571
			s-42.765,81.967-44.547,92.658c-1.782,10.691-3.563,19.601-17.819,57.02c-14.255,37.42-46.329,67.712-51.674,83.749
			c-5.346,16.037-7.128,32.073-16.037,48.11c-8.91,16.037-30.293,23.165-39.202,62.366s-44.547,94.44-44.547,94.44l-76.621-26.729
			c0,0,57.021-147.896,57.021-153.242c0-5.346,26.729-33.856,26.729-85.53c0-51.676,32.074-121.169,40.982-133.643
			c8.91-12.473,90.877-234.317,123.842-249.464C2079.473,995.939,2174.804,1024.449,2174.804,1024.449z"/>
		<path style="fill:#FFFFFF;" d="M2137.83,750.484c36.083,1.336,92.212,17.374,124.286,70.83
			c32.073,53.457,46.774,102.904,46.774,102.904l-77.512,28.065l-8.019-30.738c0,0-20.046,97.559-40.093,105.577
			c-20.046,8.019-33.41-6.683-45.438-8.018c-12.028-1.336-50.784,10.691-82.858,1.336c-32.074-9.354-33.41-33.41-37.42-61.475
			c-4.009-28.065-9.355-53.456-9.355-53.456l-12.027,9.355l-61.959-61.958c0,0,72.65-74.356,112.742-86.384
			C2087.046,754.493,2137.83,750.484,2137.83,750.484z"/>
		<path style="fill:#FB9391;" d="M2293.219,929.893c0,0,5.265,82.975,0,123.066c-5.266,40.093-48.03,126.515-48.03,126.515
			l-25.838-26.729c0,0,42.897-119.649,21.004-203.712L2293.219,929.893z"/>
		<path style="fill:#EA6868;" d="M2034.662,660.636c0,0-6.001-6.627-9.402-3.042c-8.67,9.139,3.513,17.67,10.399,18.859
			L2034.662,660.636z"/>
		<path style="fill:#FB9391;" d="M2083.006,561.791c30.402-2.608,58.411,18.331,64.578,48.215c2.027,9.827,1.557,19.519-0.92,28.484
			c-5.107,22.179-9.397,40.076-16.051,53.641c-6.744,13.751-8.403,29.44-3.985,44.105l4.46,14.81
			c-32.302,22.785-50.248,7.629-50.248,7.629l-5.308-34.956l0,0c-38.492,1.232-44.05-69.306-47.181-89.93l0.061,0.003
			c-0.147-0.769-0.294-1.538-0.412-2.318C2022.759,596.959,2047.654,564.824,2083.006,561.791z"/>
		<path style="fill:#060633;" d="M2096.598,622.273c8.492,6.373,16.162,13.759,23.809,21.125c8.092,7.795,16.5,16.097,19.679,26.874
			c8.623-8.889,13.186-20.892,16.767-32.747c1.661-5.497,3.172-11.13,3.121-16.872c-0.07-8.132-3.248-15.874-6.375-23.381
			c-4.035-9.689-8.35-19.765-16.388-26.513c-5.323-4.469-11.925-7.144-18.597-9.088c-15.569-4.538-32.438-5.403-47.982-0.776
			c-15.543,4.627-29.608,15.045-37.119,29.419c-9.672,18.512-7.692,40.692-5.465,61.46c0.776-8.878,5.346-16.913,9.81-24.626
			c2.903-5.017,5.889-10.133,10.279-13.916c7.488-6.451,9.975-5.669,22.991-17.709
			C2076.845,607.664,2085.973,614.302,2096.598,622.273z"/>
		<path style="fill:#FB9391;" d="M2130.895,658.111c0.676-2.091,2.143-3.83,4.034-4.949c3.896-2.303,10.933-5.24,16.727-0.974
			c8.501,6.259-3.374,28.076-19.525,20.581C2132.13,672.769,2127.301,669.214,2130.895,658.111z"/>
		<path style="fill:#060633;" d="M2044.693,659.694c-0.717-2.84,1.005-5.723,3.845-6.44s5.724,1.004,6.44,3.844
			c0.717,2.84-1.005,5.723-3.845,6.44C2048.294,664.256,2045.41,662.535,2044.693,659.694z"/>
		<path style="fill:#060633;" d="M2095.029,657.729c-0.717-2.84,1.005-5.724,3.845-6.44s5.724,1.004,6.44,3.845
			c0.717,2.84-1.004,5.723-3.845,6.44C2098.63,662.291,2095.747,660.569,2095.029,657.729z"/>
		<path style="fill:#EA6868;" d="M2061.887,695.867c0,0,4.163-3.719,6.93-3.233c2.766,0.486,4.563,3.603,4.563,3.603
			s1.298-3.406,4.576-3.77c3.278-0.364,12.719,1.274,12.719,1.274s-7.165,14.783-17.203,13.28
			c-10.037-1.503-11.398-10.694-11.398-10.694L2061.887,695.867z"/>
		<path style="fill:#240D39;" d="M2071.627,700.691c11.48,1.306,21.614-8.038,21.747-8.162c0.3-0.282,0.315-0.754,0.032-1.055
			c-0.281-0.299-0.757-0.314-1.055-0.034c-0.666,0.626-16.483,15.175-30.482,3.304c-0.316-0.268-0.787-0.23-1.052,0.086
			c-0.269,0.314-0.229,0.786,0.085,1.053C2064.436,698.879,2068.097,700.289,2071.627,700.691z"/>
		<path style="fill:#060633;" d="M2111.137,647.593c0.62-0.129,1.179-0.521,1.498-1.12c0.576-1.075,0.17-2.41-0.904-2.985
			c-0.321-0.172-8.039-4.159-17.605-1.739c-1.182,0.297-1.898,1.496-1.601,2.677c0.298,1.181,1.599,1.891,2.676,1.599
			c7.974-2.009,14.388,1.317,14.452,1.353C2110.127,647.63,2110.649,647.693,2111.137,647.593z"/>
		<path style="fill:#060633;" d="M2056.405,646.622c0.587-0.237,1.065-0.723,1.273-1.371c0.373-1.161-0.267-2.401-1.425-2.774
			c-0.348-0.111-8.573-2.688-17.631,1.445c-1.11,0.505-1.599,1.812-1.095,2.92c0.503,1.11,1.854,1.591,2.919,1.094
			c7.493-3.419,14.387-1.281,14.459-1.26C2055.418,646.841,2055.944,646.809,2056.405,646.622z"/>
		<path style="fill:#EA6868;" d="M2074.465,681.288c-6.339,0-9.109-4.347-9.707-7c-0.105-0.464-0.027-0.95,0.215-1.359
			c4.534-7.627,2.451-17.474,2.43-17.572c-0.22-1,0.413-1.99,1.414-2.211c0.985-0.221,1.988,0.41,2.211,1.411
			c0.098,0.446,2.308,10.76-2.439,19.525c0.582,1.392,2.563,4.405,8.408,3.219c1.026-0.199,1.987,0.446,2.189,1.45
			c0.203,1.004-0.445,1.987-1.449,2.189C2076.553,681.179,2075.463,681.288,2074.465,681.288z"/>
		<path style="fill:#272035;" d="M2008.198,905.971c-0.237,0-0.44-0.181-0.462-0.42c-2.437-26.562,18.111-64.037,18.32-64.414
			c0.125-0.225,0.409-0.308,0.63-0.181c0.226,0.123,0.306,0.406,0.182,0.631c-0.206,0.373-20.617,37.604-18.208,63.877
			c0.023,0.257-0.165,0.482-0.42,0.504C2008.226,905.971,2008.213,905.971,2008.198,905.971z"/>
		<path style="fill:#272035;" d="M2155.56,923.59c-22.636,0-41.784-13.062-42.05-13.247c-0.21-0.145-0.263-0.435-0.115-0.645
			c0.148-0.21,0.439-0.265,0.645-0.116c0.363,0.254,36.659,24.985,68.098,5.779c0.213-0.134,0.504-0.061,0.636,0.152
			c0.134,0.221,0.065,0.504-0.154,0.638C2173.677,921.614,2164.353,923.59,2155.56,923.59z"/>
		<path style="fill:#474FEA;" d="M2148.542,1724.947c-54.163,27.604-72.235,18.237-78.218,9.435
			c-22.187,10.915-44.871,20.081-43.262,27.726c2.984,14.177,108.84,2.553,114.164-2.985
			C2144.638,1755.574,2146.962,1741.438,2148.542,1724.947z"/>
		<path style="fill:#474FEA;" d="M1761.289,1701.281c-21.372,9.528-41.985,19.489-40.911,27.012
			c2.13,14.908,93.709,5.324,102.227,4.259c7.732-0.966,11.954-25.605,15.853-36.524
			C1793.045,1721.456,1770.096,1708.815,1761.289,1701.281z"/>
		<path style="fill:#FB9391;" d="M2226.154,1147.544c0,0-24.257,16.196-31.723,23.993c-7.467,7.798-20.49,9.807-17.691,15.404
			c2.801,5.597,21.926-2.503,21.926-2.503s-6.304,21.039-9.224,27.211c-2.921,6.171-5.334,18.532-0.985,21.021
			c4.348,2.488,16.302-28.137,16.302-28.137s-7.53,26.773-4.008,29.927s18.11-29.506,18.11-29.506s-9.428,28.166-8.239,31.02
			s4.888,1.446,10.647-7.716c5.759-9.162,9.279-20.002,9.279-20.002s-5.143,20.288-4.91,22.937s2.486,6.13,9.582-8.344
			c7.097-14.473,17.329-48.265,15.592-67.228L2226.154,1147.544z"/>
		<path style="fill:#FB9391;" d="M1789.085,830.576c0,0-6.758-28.374-11.475-38.084c-4.717-9.71-2.075-22.621-8.297-21.94
			c-6.221,0.68-5.271,21.428-5.271,21.428s-17.538-13.221-22.311-18.104c-4.772-4.883-15.523-11.44-19.368-8.228
			c-3.845,3.213,20.719,25.063,20.719,25.063s-22.488-16.365-26.67-14.157c-4.181,2.208,21.375,27.235,21.375,27.235
			s-23.136-18.628-26.224-18.505c-3.089,0.123-3.055,4.081,3.535,12.665c6.589,8.584,15.531,15.652,15.531,15.652
			s-17.237-11.873-19.801-12.575c-2.564-0.702-6.611,0.201,4.493,11.884c11.106,11.684,39.236,33.021,57.621,37.98L1789.085,830.576
			z"/>
		<path style="fill:#FB9391;" d="M1983.565,902.259c0,0-58.61,70.212-106.393,62.525c-47.782-7.688-112.698-123.888-112.698-123.888
			l23.105-14.102c0,0,71.988,78.748,97.138,73.718c25.149-5.03,60.668-36.433,60.668-36.433L1983.565,902.259z"/>
	</g>
	<g>
		<rect x="2678.719" y="1222.642" style="fill:#060633;" width="22.249" height="103.878"/>
		<path style="fill:#FA7267;" d="M2516.886,1390.887h252.014c10.809,0,19.569-8.762,19.569-19.57v-47.941
			c0-10.809-8.761-19.57-19.569-19.57h-252.014c-10.808,0-19.569,8.762-19.569,19.57v47.941
			C2497.316,1382.125,2506.078,1390.887,2516.886,1390.887z"/>
		<path style="fill:#FA7267;" d="M2612.821,1241.813h174.354c14.28,0,25.856-11.576,25.856-25.856v-174.354
			c0-14.28-11.576-25.856-25.856-25.856h-174.354c-14.28,0-25.856,11.576-25.856,25.856v174.354
			C2586.965,1230.236,2598.541,1241.813,2612.821,1241.813z"/>
		<rect x="2625.797" y="1390.886" style="fill:#060633;" width="22.248" height="314.389"/>
		<path style="fill:#060633;" d="M2747.285,1711.949h-221.207c-3.688,0-6.675-2.988-6.675-6.675c0-3.686,2.987-6.674,6.675-6.674
			h221.207c3.688,0,6.675,2.988,6.675,6.674C2753.96,1708.961,2750.973,1711.949,2747.285,1711.949z"/>
		<path style="fill:#060633;" d="M2559.338,1725.803c0-8.979-7.279-16.259-16.26-16.259c-8.979,0-16.26,7.279-16.26,16.259
			c0,8.98,7.28,16.26,16.26,16.26C2552.059,1742.063,2559.338,1734.783,2559.338,1725.803z"/>
		<path style="fill:#060633;" d="M2742.487,1725.803c0-8.979-7.28-16.259-16.259-16.259c-8.98,0-16.26,7.279-16.26,16.259
			c0,8.98,7.279,16.26,16.26,16.26C2735.207,1742.063,2742.487,1734.783,2742.487,1725.803z"/>
		<path style="fill:#060633;" d="M2653.18,1725.803c0-8.979-7.279-16.259-16.26-16.259c-8.979,0-16.259,7.279-16.259,16.259
			c0,8.98,7.28,16.26,16.259,16.26C2645.9,1742.063,2653.18,1734.783,2653.18,1725.803z"/>
	</g>
	<g>
		<path style="fill:#FB9391;" d="M2387.485,1000.738c0,0-0.31-26.926-2.58-36.631c-2.271-9.705,2.736-20.794-3.005-21.447
			c-5.74-0.654-9.109,18.223-9.109,18.223s-13.102-15.476-16.405-20.845c-3.303-5.369-11.65-13.463-15.767-11.352
			c-4.115,2.11,13.556,26.787,13.556,26.787s-16.92-19.315-21.134-18.178c-4.215,1.137,13.703,28.877,13.703,28.877
			s-17.042-21.485-19.848-22.003c-2.806-0.518-3.581,3.053,0.605,12.124c4.186,9.072,10.8,17.257,10.8,17.257
			s-13.105-14.2-15.271-15.355c-2.167-1.154-5.995-1.165,1.628,11.617c7.621,12.782,28.609,37.723,44.155,45.933L2387.485,1000.738z
			"/>
		<path style="fill:#FB9391;" d="M2404.291,1649.902c0,0-4.242,56.451-4.672,57.243c-0.431,0.791,4.038,7.716,4.038,7.716
			l17.453,3.127l15.928-7.324c0,0,8.646-55.068,10.312-63.181C2449.018,1639.371,2404.291,1649.902,2404.291,1649.902z"/>
		<path style="fill:#0B0755;" d="M2437.038,1710.664c0,0-20.116,7.038-37.311-4.606c0,0-66.983,25.105-64.938,44.196
			c0,0-2.852,5.688,26.17,4.459c29.022-1.229,74.126-2.52,75.335-3.189S2443.185,1753.919,2437.038,1710.664z"/>
		<path style="fill:#FB9391;" d="M2543.424,1645.481c0,0,0.795,55.331,0.365,56.122c-0.431,0.792,4.038,7.717,4.038,7.717
			l17.453,3.127l15.929-7.324c0,0-1.405-51.439,0.262-59.552S2543.424,1645.481,2543.424,1645.481z"/>
		<path style="fill:#0B0755;" d="M2581.209,1705.123c0,0-20.116,7.038-37.312-4.606c0,0-66.983,25.105-64.938,44.195
			c0,0-2.852,5.688,26.171,4.46c29.021-1.228,74.125-2.519,75.334-3.189S2587.354,1748.378,2581.209,1705.123z"/>
		<g>
			<path style="fill:#EA6868;" d="M2607.178,766.352c0,0-4.248-7.88-8.412-5.209c-10.617,6.808-1.605,17.625,4.803,20.431
				L2607.178,766.352z"/>
			<path style="fill:#FB9391;" d="M2607.471,738.744l0.059,0.017c0.041-0.783,0.083-1.565,0.154-2.352
				c3.174-34.818,35.09-60.101,70.195-54.559c29.248,4.617,51.185,30.224,51.236,59.833c0.02,10.992-2.831,21.173-7.76,29.965
				c-6.903,13.661-12.948,25.335-19.098,34.937c-10.171,15.88-14.653,34.743-13.211,53.545l1.136,14.79
				c-39.038,16.429-54.341-3.554-54.341-3.554l1.752-26.796c0.229-3.498-2.269-6.555-5.731-7.098
				c-0.021-0.003-0.042-0.006-0.064-0.01C2585.904,830.244,2605.576,759.542,2607.471,738.744z"/>
			<path style="fill:#060633;" d="M2666.995,776.231c0.284-3.115,3.038-5.41,6.153-5.126c3.114,0.284,5.409,3.039,5.125,6.154
				c-0.283,3.115-3.039,5.41-6.153,5.125C2669.006,782.101,2666.711,779.346,2666.995,776.231z"/>
			<path style="fill:#060633;" d="M2617.785,761.632c0.284-3.115,3.039-5.41,6.153-5.126c3.115,0.284,5.41,3.039,5.126,6.153
				c-0.283,3.115-3.038,5.41-6.153,5.126C2619.797,767.501,2617.502,764.746,2617.785,761.632z"/>
			<path style="fill:#060633;" d="M2687.999,769.274c0.578,0.053,1.179-0.045,1.739-0.316c1.65-0.796,2.344-2.78,1.547-4.431
				c-2.402-4.974-10.424-13.02-23.625-7.861c-1.706,0.668-2.549,2.592-1.882,4.3c0.668,1.707,2.595,2.546,4.3,1.882
				c10.839-4.244,15.056,4.203,15.229,4.565C2685.833,768.5,2686.875,769.172,2687.999,769.274z"/>
			<path style="fill:#060633;" d="M2635.925,755.643c0.579,0.053,1.179-0.045,1.74-0.316c1.649-0.797,2.343-2.78,1.546-4.431
				c-2.401-4.976-10.426-13.022-23.624-7.862c-1.706,0.668-2.549,2.592-1.883,4.3c0.669,1.708,2.594,2.549,4.3,1.882
				c10.839-4.242,15.057,4.202,15.23,4.565C2633.76,754.869,2634.802,755.541,2635.925,755.643z"/>
			<polygon style="fill:#060633;" points="2733.902,752.119 2713.729,791.612 2702.913,788.405 2701.121,734.926 			"/>
			<path style="fill:#FB9391;" d="M2701.327,786.944c1.158-1.87,3.001-3.21,5.106-3.844c4.338-1.306,11.883-2.476,16.493,3.059
				c6.765,8.12-10.004,26.483-23.909,15.331C2699.018,801.49,2695.176,796.877,2701.327,786.944z"/>
			<path style="fill:#EA6868;" d="M2636.148,794.018c5.176,3.143,10.257,0.662,10.316,0.63c0.486-0.243,0.68-0.832,0.437-1.319
				c-0.242-0.483-0.835-0.683-1.319-0.441c-0.237,0.117-5.893,2.813-10.826-2.568c-0.804-0.877-1.2-1.566-1.177-2.046
				c0.033-0.677,0.917-1.472,2.141-2.571c2.816-2.532,7.531-6.77,9.826-17.104c0.116-0.533-0.219-1.059-0.749-1.176
				s-1.058,0.218-1.175,0.749c-2.157,9.719-6.407,13.539-9.219,16.067c-1.521,1.365-2.721,2.443-2.792,3.941
				c-0.053,1.067,0.47,2.139,1.693,3.472C2634.234,792.665,2635.193,793.438,2636.148,794.018z"/>
			<path style="fill:#060633;" d="M2619.355,716.102c0,0-9.262,5.323-14.751,41.902c0,0,0.774-41.262,5.745-45.361
				C2615.32,708.545,2619.355,716.102,2619.355,716.102z"/>
		</g>
		<path style="fill:#2F3DBC;" d="M2794.428,1194.819l-198.6-57.558l-72.768,55.645l4.015,68.141l-0.272-0.028l-81.441,66.839
			c-18.71,15.355-30.467,37.582-32.632,61.689l-25.45,283.432h69.682l74.488-282.092v282.092h62.419l45.674-258.644l103.441-69.854
			c33.868-22.87,53.727-61.439,52.67-102.292L2794.428,1194.819z"/>
		<path style="fill:#FFFFFF;" d="M2693.438,867.622h-60.631l-23.5,101.633v194.97c0,0,55.659,26.964,128.945-8.297l-21.369-228.156
			L2693.438,867.622z"/>
		<path style="fill:#4851EC;" d="M2693.438,867.622c0,0,91.482,38.717,109.459,63.607c16.603,22.987,14.271,1.125,62.091,130.148
			c6.255,16.877,3.508,35.45-6.65,49.629c-4.158,5.806-10.079,10.12-16.77,12.616l-47.113,17.577l4.985,119.818l-91.262,8.988
			L2693.438,867.622z"/>
		<path style="fill:#4851EC;" d="M2632.807,867.622c0,0-91.484,38.717-109.46,63.607c-17.976,24.89,3.457,329.789,3.457,329.789
			l91.263,8.988L2632.807,867.622z"/>
		<polygon style="fill:#FA7267;" points="2673.779,879.03 2663.121,897.179 2685.329,1153.854 2651.067,1209.165 2625.633,1152.472 
			2650.273,895.623 2642.496,877.474 2663.404,869.696 		"/>
		<polygon style="fill:#FFFFFF;" points="2693.438,867.622 2688.896,857.653 2660.385,867.622 2636.795,856.782 2632.807,867.622 
			2637.829,886.289 2659.349,872.31 2680.35,887.586 		"/>
		<path style="fill:#060633;" d="M2713.219,679.091c-1.738-1.782-4.95-3.214-6.414-1.201c-0.59,0.812-0.598,1.898-0.523,2.898
			c0.213,2.908,0.905,5.78,2.041,8.466c-10.22-11.98-27.266-15.7-43.012-15.465c-15.746,0.235-31.388,3.676-47.117,2.904
			c-6.236-0.306-13.713-0.748-17.377,4.308c-2.556,3.528-1.971,8.688,0.592,12.211c2.562,3.524,6.715,5.596,10.944,6.639
			c-3.247-1.37-7.319-0.444-9.656,2.194c-2.336,2.638-2.763,6.793-1.011,9.85c2.679,4.677,8.863,5.71,14.235,6.149
			c17.1,1.4,34.274,1.886,51.426,1.454c-2.493,2.013-4.987,4.025-7.481,6.038c-0.851,0.686-1.735,1.418-2.14,2.433
			c-0.558,1.395-0.067,3.007,0.745,4.27c2.105,3.267,6.131,4.855,10.01,5.106c3.878,0.251,7.727-0.623,11.563-1.25
			c5.598-0.914,11.281-1.308,16.951-1.173c1.174,0.028,2.383,0.086,3.444,0.586c1.433,0.674,2.387,2.04,3.398,3.257
			c6.035,7.259,15.602,10.348,24.635,13.092c2.806,0.853,6.519,1.399,8.078-1.084c0.604-0.962,0.685-2.153,0.722-3.289
			c0.448-13.595-2.861-27.296-9.468-39.187c1.694,3.051,5.874,3.803,7.754,0.25c2.393-4.522-3.289-8.254-6.485-10.112
			c-2.923-1.699-5.703-2.058-7.878-4.9C2717.785,689.081,2717.436,683.414,2713.219,679.091z"/>
		<path style="fill:#FFFFFF;" d="M2651.391,808.819l-32.035-7.742c0,0,1.837,17.754,13.479,17.754
			C2644.477,818.831,2651.391,808.819,2651.391,808.819z"/>
		<polygon style="fill:#2F3DBC;" points="2729.116,883.971 2711.153,958.014 2729.116,965.521 2702.646,1119.039 2693.438,867.622 
					"/>
		<path style="fill:#4851EC;" d="M2545.725,912.307c0,0-30.294,16.654-43.109,53.498c-12.814,36.843-30.818,94.335-54.936,103.009
			c-19.223,6.914-53.192-75.484-53.192-75.484l-44.853,15.615c0,0,28.085,168.163,115.336,153.092
			c55.457-9.579,73.688-131.355,73.688-131.355L2545.725,912.307z"/>
		<polygon style="fill:#2F3DBC;" points="2597.127,883.971 2615.09,958.014 2597.127,965.521 2623.597,1119.039 2632.807,867.622 		
			"/>
		<g>
			<path style="fill:#FB9391;" d="M2708.762,1112.889c0,0-25.779-9.239-35.834-10.511c-10.056-1.271-18.854-9.972-21.51-4.73
				c-2.655,5.241,14.147,15.138,14.147,15.138s-19.394,7.01-25.681,8.258c-6.287,1.248-16.959,6.34-16.404,11.011
				c0.554,4.671,30.336-3.438,30.336-3.438s-24.404,9.291-24.813,13.711c-0.408,4.42,32.381-2.839,32.381-2.839
				s-26.516,8.639-28.004,11.13c-1.486,2.491,1.643,4.495,11.773,3.716c10.13-0.778,20.275-4.185,20.275-4.185
				s-18.178,7.465-20.046,9.121c-1.867,1.656-3.233,5.302,11.651,2.563c14.883-2.74,46.092-13.917,59.422-25.831L2708.762,1112.889z
				"/>
		</g>
		<path style="fill:#0B0755;" d="M2531.449,1391.999L2531.449,1391.999c-0.615,0-1.113-0.499-1.113-1.113
			c0-0.378,0.259-38.138,22.655-67.466c14.194-18.585,82.362-60.441,85.26-62.213c0.519-0.316,1.206-0.158,1.529,0.367
			c0.319,0.524,0.156,1.209-0.369,1.529c-0.704,0.433-70.709,43.411-84.651,61.667c-21.929,28.716-22.198,65.745-22.198,66.115
			C2532.562,1391.501,2532.063,1391.999,2531.449,1391.999z"/>
		<path style="fill:#17152B;" d="M2722.082,1156.186c-0.238,0-0.459-0.155-0.532-0.392l-14.817-48.058
			c-0.076-0.248,0.03-0.516,0.254-0.646l80.781-46.542l-22.518-53.776c-0.12-0.284,0.015-0.609,0.297-0.729
			c0.283-0.115,0.611,0.015,0.729,0.298l22.707,54.229c0.108,0.259,0.008,0.558-0.235,0.697l-80.82,46.566l14.54,47.153
			l71.88-14.332c0.319-0.07,0.595,0.136,0.654,0.437c0.061,0.301-0.136,0.595-0.438,0.654l-72.372,14.43
			C2722.154,1156.183,2722.117,1156.186,2722.082,1156.186z"/>
	</g>
	<rect x="920.044" y="1198.08" style="fill:#060633;" width="1631.981" height="35.241"/>
	<path style="fill:#060633;" d="M2232.836,1752.683c-0.057,0-0.115-0.001-0.172-0.005c-1.84-0.093-3.256-1.662-3.163-3.503
		l27.233-533.645c0.093-1.839,1.684-3.268,3.502-3.162c1.84,0.094,3.257,1.662,3.163,3.503l-27.232,533.645
		C2236.076,1751.299,2234.603,1752.683,2232.836,1752.683z"/>
	<path style="fill:#060633;" d="M2494.515,1752.683c-1.767,0-3.239-1.384-3.33-3.167l-27.231-533.645
		c-0.093-1.841,1.324-3.409,3.164-3.503c1.854-0.102,3.406,1.323,3.502,3.162l27.23,533.645c0.094,1.841-1.322,3.41-3.163,3.503
		C2494.63,1752.682,2494.571,1752.683,2494.515,1752.683z"/>
	<g>
		<polygon style="fill:#0B0755;" points="2172.559,1046.636 2379.523,1046.346 2444.632,1197.679 2237.666,1197.969 		"/>
		
			<rect x="2403.993" y="1188.479" transform="matrix(-1 0.0014 -0.0014 -1 4948.2173 2382.6477)" style="fill:#0B0755;" width="138.562" height="9.159"/>
		<path style="fill:#FFFFFF;" d="M2297.22,1119.938c0.027-5.031-4.03-9.133-9.062-9.16c-5.032-0.027-9.133,4.03-9.16,9.063
			c-0.027,5.031,4.029,9.133,9.062,9.16S2297.193,1124.97,2297.22,1119.938z"/>
	</g>
	<g>
		<path style="fill:#0B0755;" d="M805.504,1756.304c-0.437,0-0.882-0.052-1.325-0.16c-2.985-0.73-4.813-3.74-4.083-6.725
			l32.615-133.282c0.73-2.983,3.743-4.81,6.725-4.081c2.985,0.731,4.812,3.74,4.082,6.725l-32.614,133.282
			C810.282,1754.603,808.007,1756.304,805.504,1756.304z"/>
		<path style="fill:#0B0755;" d="M621.997,1756.304c-0.437,0-0.882-0.052-1.325-0.16c-2.985-0.73-4.813-3.74-4.083-6.725
			l47.319-193.376c0.73-2.983,3.742-4.81,6.725-4.081c2.985,0.73,4.813,3.74,4.083,6.725l-47.319,193.376
			C626.775,1754.603,624.5,1756.304,621.997,1756.304z"/>
		<path style="fill:#FA7267;" d="M695.271,1061.438c325.941,0,263.306,335.206,366.02,329.448
			c102.713-5.757,150.368,236.354-223.175,236.354S395.281,1061.438,695.271,1061.438z"/>
		<g>
			<path style="fill:#FB9391;" d="M1141.46,1646.877c0,0-0.796,55.331-0.365,56.123c0.43,0.791-4.039,7.716-4.039,7.716
				l-17.454,3.127l-15.928-7.324c0,0,1.404-51.439-0.263-59.552C1101.745,1638.855,1141.46,1646.877,1141.46,1646.877z"/>
			<path style="fill:#0B0755;" d="M1103.675,1706.519c0,0,20.116,7.038,37.311-4.606c0,0,66.984,25.105,64.938,44.195
				c0,0,2.852,5.688-26.17,4.46c-29.022-1.229-74.126-2.52-75.335-3.189C1103.211,1746.708,1097.528,1749.773,1103.675,1706.519z"/>
			<path style="fill:#FB9391;" d="M972.46,1646.877c0,0-0.796,55.331-0.365,56.123c0.431,0.791-4.038,7.716-4.038,7.716
				l-17.454,3.127l-15.928-7.324c0,0,1.404-51.439-0.263-59.552C932.745,1638.855,972.46,1646.877,972.46,1646.877z"/>
			<path style="fill:#0B0755;" d="M934.675,1706.519c0,0,20.116,7.038,37.312-4.606c0,0,66.983,25.105,64.938,44.195
				c0,0,2.852,5.688-26.17,4.46c-29.023-1.229-74.125-2.52-75.334-3.189C934.211,1746.708,928.528,1749.773,934.675,1706.519z"/>
			<g>
				<g>
					<path style="fill:#EA6868;" d="M817.465,990.928c0,0,5.839-7,9.453-3.489c9.212,8.951-1.979,17.916-8.945,19.414
						L817.465,990.928z"/>
					<path style="fill:#FB9391;" d="M822.782,963.315l-0.061,0.005c0.118-0.79,0.235-1.579,0.324-2.379
						c3.909-35.393-22.806-67.11-58.967-68.713c-30.127-1.336-57.224,19.762-63.292,49.301c-2.253,10.965-1.477,21.706,1.655,31.481
						c4.114,15.037,7.774,27.915,11.961,38.748c6.923,17.915,7.564,37.65,2.303,56.121l-4.139,14.53
						c35.622,24.328,54.954,7.495,54.954,7.495l3.696-27.098c0.483-3.537,3.597-6.08,7.163-5.918
						c0.022,0.001,0.044,0.002,0.066,0.003C825.712,1059.014,820.447,984.456,822.782,963.315z"/>
					<path style="fill:#050521;" d="M755.76,988.631c0.35-3.166-1.933-6.016-5.1-6.366c-3.166-0.35-6.016,1.934-6.366,5.1
						c-0.35,3.166,1.934,6.016,5.1,6.366C752.56,994.081,755.411,991.798,755.76,988.631z"/>
					<path style="fill:#050521;" d="M807.837,984.06c0.35-3.166-1.934-6.016-5.1-6.366c-3.166-0.35-6.016,1.934-6.366,5.1
						c-0.35,3.166,1.933,6.016,5.1,6.366C804.638,989.51,807.488,987.227,807.837,984.06z"/>
					<path style="fill:#050521;" d="M736.213,977.42c-0.589-0.065-1.167-0.285-1.673-0.669c-1.484-1.13-1.773-3.251-0.642-4.737
						c3.408-4.476,13.048-10.875,25.175-3.045c1.567,1.014,2.017,3.106,1.004,4.674c-1.013,1.568-3.107,2.015-4.673,1.004
						c-9.955-6.438-15.88,1.135-16.127,1.461C738.53,977.087,737.354,977.546,736.213,977.42z"/>
					<path style="fill:#050521;" d="M790.952,974.398c-0.588-0.065-1.167-0.285-1.673-0.67c-1.485-1.13-1.773-3.251-0.642-4.736
						c3.407-4.478,13.051-10.877,25.174-3.045c1.567,1.013,2.017,3.105,1.004,4.673c-1.014,1.568-3.106,2.017-4.673,1.005
						c-9.955-6.436-15.879,1.134-16.127,1.46C793.269,974.065,792.093,974.524,790.952,974.398z"/>
					<polygon style="fill:#0B0755;" points="693.888,950.971 705.995,994.484 717.44,993.481 730.096,940.474 					"/>
					<path style="fill:#FB9391;" d="M719.32,992.346c-0.776-2.102-2.342-3.813-4.315-4.875c-4.063-2.185-11.356-4.885-17.082-0.299
						c-8.4,6.729,4.603,28.464,20.746,20.158C718.668,1007.331,723.44,1003.509,719.32,992.346z"/>
					<path style="fill:#EA6868;" d="M782.93,1012.65c-5.804,2.086-10.371-1.424-10.424-1.467c-0.435-0.342-0.508-0.969-0.167-1.405
						c0.34-0.434,0.972-0.512,1.406-0.172c0.213,0.165,5.31,4.005,11.326-0.363c0.981-0.712,1.517-1.318,1.591-1.803
						c0.105-0.682-0.615-1.654-1.613-3.001c-2.296-3.099-6.141-8.286-6.331-19.066c-0.008-0.556,0.434-1.013,0.986-1.021
						c0.552-0.009,1.011,0.432,1.021,0.986c0.178,10.138,3.643,14.813,5.935,17.908c1.24,1.671,2.218,2.991,1.986,4.501
						c-0.166,1.076-0.904,2.039-2.396,3.12C785.115,1011.689,784.001,1012.266,782.93,1012.65z"/>
					<path style="fill:#FFFFFF;" d="M758.646,1020.548c0,0,23.069,5.458,38.646,0.192c0,0-5.666,17.578-19.411,17.51
						C764.135,1038.182,758.646,1020.548,758.646,1020.548z"/>
					<path style="fill:#0B0755;" d="M815.522,938.305c0,0,8.161,7.194,6.207,44.815c0,0,7.612-41.336,3.484-46.437
						C821.085,931.582,815.522,938.305,815.522,938.305z"/>
				</g>
				<path style="fill:#0B0755;" d="M691.256,936.956c0.973-9.109,5.129-17.562,9.78-25.454c-4.332,0.546-9.163,0.916-12.633-1.734
					c-3.471-2.65-3.382-9.493,0.894-10.377c2.487-0.514,4.865,1.188,7.381,1.533c5.734,0.787,9.904-5.322,11.745-10.811
					c1.84-5.488,3.454-11.958,8.688-14.432c1.643-0.776,3.513-1.047,5.315-0.816c1.325,6.682,0.339,13.8-2.752,19.87
					c6.875-8.413,15.469-15.414,25.097-20.448c7.494-3.918,16.335-6.664,24.35-3.966c1.676,6.52-9.158,9.602-10.546,16.189
					c14.383-3.571,29.315-4.923,44.104-3.995c3.811,0.239,7.707,0.655,11.133,2.34c3.426,1.685,6.333,4.887,6.671,8.69
					c0.444,4.995-4.386,9.763-9.375,9.255c7.307,3.423,14.706,6.904,20.889,12.089c6.183,5.185,11.113,12.359,11.868,20.393
					c-5.388,0.053-10.785-1.318-15.494-3.939c3.242,3.031,6.028,7.607,4.354,11.717c-1.238,3.041-4.64,4.75-7.917,4.949
					c-3.277,0.2-6.492-0.824-9.616-1.837c-15.771-5.111-31.542-10.222-47.313-15.333c6.161,6.68,10.608,14.928,12.803,23.747
					c-14.33-1.708-28.117-7.739-39.096-17.106c-1.343,6.756-3.641,13.323-6.802,19.443c-0.496,0.959-1.063,1.959-2.012,2.474
					c-3.194,1.731-5.761-3.016-8.627-5.248c-3.513-2.736-8.679-1.552-12.589,0.579c-6.743,3.673-11.416,9.026-16.569,1.043
					C691.518,950.404,690.591,943.189,691.256,936.956z"/>
			</g>
			<path style="fill:#4851EC;" d="M1071.073,1371.903c0,0,64.807,5.248,85.595,87.815c12.079,47.978,7.336,204.205,7.336,204.205
				l-84.03,13.181c0,0,7.542-174.589-57.539-228.391c0,0,13.177,35.46-34.511,237.22h-62.362l-20.788-206.65
				c0,0-146.734,4.891-190.754-31.792c-44.02-36.684-48.435-80.587-48.435-80.587l207.397-31.521L1071.073,1371.903z"/>
			<path style="fill:#FFFFFF;" d="M698.531,1091.253c0,0,4.076-31.385,10.598-29.754c6.521,1.63,64.399,12.156,70.106,10.97
				c5.707-1.188,0,26.529,0,26.529s65.155,5.929,81.459,33.646c16.303,27.716,54.222,132.971,68.08,141.938
				c13.858,8.967,41.215,33.919,41.215,33.919l-112.72,63.402l-106.775-4.999c0,0-77.233,46.289-137.558,10.247
				c-60.324-36.043-49.727-225.167,7.336-258.589C677.336,1085.14,698.531,1091.253,698.531,1091.253z"/>
			<path style="fill:#0B0755;" d="M888.306,1342.797c-0.074,0-0.15-0.016-0.222-0.047c-32.378-14.142-49.796-154.374-50.522-160.337
				c-0.037-0.306,0.18-0.583,0.484-0.62c0.322-0.053,0.583,0.18,0.619,0.485c0.178,1.454,18.064,145.563,49.862,159.452
				c0.282,0.123,0.41,0.451,0.289,0.733C888.726,1342.672,888.521,1342.797,888.306,1342.797z"/>
			<path style="fill:#0B0755;" d="M750.493,1367.461c-0.215,0-0.419-0.125-0.511-0.333c-0.122-0.282,0.007-0.609,0.287-0.732
				l23.691-10.353l-3.322-41.371c-5.914-1.16-73.081-14.269-104.983-17.994c-0.276-0.033-0.487-0.266-0.491-0.545
				c-0.05-3.161-1.169-77.542,3.715-88.533c0.124-0.281,0.452-0.406,0.734-0.282c0.28,0.125,0.406,0.454,0.282,0.734
				c-4.584,10.315-3.717,80.99-3.626,87.577c33.466,3.963,104.281,17.892,104.998,18.033c0.244,0.047,0.426,0.252,0.445,0.5
				l3.388,42.187c0.02,0.237-0.113,0.46-0.331,0.554l-24.054,10.512C750.643,1367.446,750.567,1367.461,750.493,1367.461z"/>
			<path style="fill:#0B0755;" d="M1022.435,1449.271c-0.263,0-0.495-0.188-0.547-0.454c-0.033-0.182-3.62-18.357-21.68-37.345
				c-16.678-17.536-49.468-39.373-110.96-43.817c-0.307-0.022-0.539-0.289-0.515-0.596c0.02-0.305,0.311-0.534,0.593-0.515
				c61.898,4.474,94.93,26.515,111.742,44.218c18.255,19.221,21.879,37.665,21.914,37.85c0.057,0.303-0.144,0.593-0.445,0.649
				C1022.503,1449.267,1022.469,1449.271,1022.435,1449.271z"/>
			<g>
				<g>
					<path style="fill:#F78181;" d="M793.302,1319.987c0,0,1.619,0.045,4.336,0.13c13.382,0.418,53.415,1.795,58.06,3.432
						c5.588,1.97-11.234,36.896-11.234,36.896s-48.108,2.635-63.588-7.689C765.395,1342.432,793.302,1319.987,793.302,1319.987z"/>
					<path style="fill:#F78181;" d="M838.115,1360.667c0,0,26.834,12.139,29.209,9.488c2.376-2.65-21.011-16.198-21.011-16.198
						L838.115,1360.667z"/>
					<path style="fill:#F78181;" d="M845.425,1352.063c0,0,39.729,16.344,42.734,10.856c3.005-5.487-40.959-19.674-40.959-19.674
						L845.425,1352.063z"/>
					<path style="fill:#F78181;" d="M850.708,1342.433c0,0,41.005,12.81,43.519,7.081c2.514-5.729-42.522-16.021-42.522-16.021
						L850.708,1342.433z"/>
					<path style="fill:#F78181;" d="M852.787,1332.104c0,0,38.302,12.508,40.697,6.766c2.395-5.742-39.699-15.705-39.699-15.705
						L852.787,1332.104z"/>
				</g>
				<polygon style="fill:#F78181;" points="802.455,1321.133 772.23,1317.349 775.014,1351.52 790.562,1355.001 				"/>
			</g>
			<g>
				<polygon style="fill:#91B5F8;" points="1144.711,1215.408 923.509,1215.099 853.922,1376.841 1075.125,1377.151 				"/>
				
					<rect x="749.264" y="1367.008" transform="matrix(1 0.0014 -0.0014 1 1.9277 -1.155)" style="fill:#91B5F8;" width="148.093" height="9.79"/>
				<path style="fill:#FFFFFF;" d="M1011.474,1293.753c-0.029-5.378,4.307-9.762,9.685-9.79c5.378-0.029,9.761,4.307,9.791,9.685
					c0.029,5.379-4.308,9.762-9.686,9.791S1011.503,1299.131,1011.474,1293.753z"/>
			</g>
		</g>
	</g>
	<g>
		<path style="fill:#FA7267;" d="M1840.168,373.664c0-80.709-70.851-146.138-158.252-146.138
			c-87.401,0-158.253,65.428-158.253,146.138c0,39.146,16.669,74.696,43.809,100.929c24.588,23.767,38.725,56.323,38.725,90.521l0,0
			c0,27.666,22.428,50.094,50.094,50.094h51.25c27.666,0,50.094-22.428,50.094-50.094l0,0c0-34.197,14.137-66.753,38.725-90.521
			C1823.499,448.36,1840.168,412.81,1840.168,373.664z"/>
		<path style="fill:#060633;" d="M1709.672,633.405c-0.982,0-1.805-0.77-1.859-1.763c-0.873-16.288,23.821-270.803,24.873-281.63
			c0.099-1.024,1.001-1.78,2.034-1.674c1.024,0.099,1.774,1.01,1.675,2.034c-0.257,2.648-25.72,265.061-24.859,281.07
			c0.055,1.028-0.732,1.905-1.761,1.96C1709.74,633.404,1709.707,633.405,1709.672,633.405z"/>
		<path style="fill:#060633;" d="M1652.744,633.405c-0.035,0-0.067-0.001-0.102-0.003c-1.028-0.055-1.816-0.933-1.761-1.96
			c0.862-16.009-24.603-278.421-24.859-281.07c-0.1-1.025,0.65-1.935,1.674-2.034c1.029-0.104,1.936,0.649,2.034,1.674
			c1.052,10.827,25.748,265.343,24.873,281.63C1654.549,632.635,1653.726,633.405,1652.744,633.405z"/>
		<path style="fill:#060633;" d="M1676.423,415.25c-4.819,0-9.823-1.716-13.964-4.927c-2.999,2.148-6.605,3.487-10.494,3.132
			c-5.284-0.475-10.383-4.1-13.639-9.695c-2.8-4.816-7.236-21.227-8.432-26.874c-0.106-0.503,0.215-0.999,0.719-1.104
			c0.491-0.104,0.998,0.213,1.105,0.719c1.239,5.854,5.63,21.87,8.221,26.322c2.952,5.074,7.509,8.355,12.194,8.776
			c3.228,0.292,6.273-0.765,8.857-2.512c-0.007-0.007-0.016-0.016-0.025-0.023c-6.816-6.236-9.353-14.984-10.281-21.224
			c-1.166-7.836-0.174-14.343,2.948-19.34c1.448-2.316,3.166-3.897,5.105-4.697c4.963-2.048,10.729,1.477,12.987,6.065
			c2.231,4.53,2.013,9.706,1.598,14.619c-0.515,6.107-1.351,13.119-4.739,19.051c-1.137,1.99-2.715,3.947-4.615,5.593
			c5.721,4.25,13.082,5.473,18.939,2.983c2.47-1.048,4.689-2.74,6.537-4.915c-2.342-1.417-4.26-3.397-5.408-5.804
			c-1.318-2.759-1.64-5.799-1.793-8.672c-0.46-8.619,0.479-17.207,2.79-25.524c0.083-0.301,0.313-0.54,0.609-0.637
			c2.926-0.948,5.879,0.808,7.395,2.84c1.574,2.108,2.172,4.704,2.65,7.18c1.134,5.859,2.22,13.521,0.544,20.831
			c-0.783,3.417-2.151,6.53-3.967,9.161c3.186,1.353,6.969,1.653,10.483,0.566c1.897-0.584,3.704-1.518,5.369-2.743
			c-1.281-1.956-2.18-4.036-2.769-5.667c-4.746-13.145-4.336-28.062,1.124-40.925c0.103-0.242,0.303-0.43,0.551-0.516
			c4.014-1.398,8.204,1.082,10.271,4.258c2.129,3.272,2.588,7.251,2.85,10.723c0.457,6.06,0.641,13.964-2.038,21.349
			c-1.621,4.475-4.22,8.305-7.423,11.103c1.612,2.002,3.749,3.654,6.469,3.882c2.259,0.178,4.259-0.674,5.551-1.429
			c4.492-2.628,7.151-8.265,6.323-13.404c-0.082-0.508,0.263-0.986,0.77-1.068c0.515-0.083,0.986,0.264,1.068,0.771
			c0.963,5.963-2.007,12.258-7.219,15.309c-2.186,1.278-4.479,1.858-6.649,1.677c-3.343-0.28-5.891-2.194-7.786-4.556
			c-1.829,1.346-3.819,2.371-5.912,3.017c-4.081,1.257-8.494,0.844-12.172-0.835c-2.083,2.548-4.633,4.529-7.489,5.743
			C1681.382,414.786,1678.927,415.25,1676.423,415.25z M1661.828,365.059c-0.802,0-1.603,0.145-2.38,0.466
			c-1.573,0.65-2.997,1.982-4.237,3.963c-2.84,4.544-3.769,10.796-2.686,18.078c0.884,5.942,3.285,14.256,9.699,20.122
			c0.093,0.087,0.186,0.171,0.282,0.254c1.837-1.544,3.368-3.42,4.458-5.329c3.203-5.603,4.003-12.375,4.502-18.284
			c0.392-4.653,0.607-9.538-1.412-13.64C1668.533,367.601,1665.172,365.059,1661.828,365.059z M1686.686,368.218
			c-2.152,7.96-3.02,16.168-2.582,24.406c0.142,2.682,0.437,5.502,1.614,7.968c1.024,2.143,2.752,3.897,4.866,5.138
			c1.758-2.482,3.081-5.453,3.832-8.734c1.598-6.969,0.541-14.381-0.559-20.06c-0.437-2.266-0.974-4.627-2.311-6.42
			C1690.469,369.074,1688.49,367.897,1686.686,368.218z M1708.02,358.931c-5.118,12.344-5.457,26.594-0.917,39.167
			c0.451,1.254,1.267,3.216,2.488,5.108c2.907-2.581,5.272-6.104,6.765-10.222c2.557-7.05,2.375-14.698,1.93-20.573
			c-0.244-3.242-0.662-6.944-2.552-9.848C1714.17,360.161,1711.003,358.145,1708.02,358.931z"/>
		<path style="fill:#424BE1;" d="M1732.216,695.47h-100.601c-7.348,0-13.304-5.957-13.304-13.304v-23.042h127.208v23.042
			C1745.52,689.513,1739.563,695.47,1732.216,695.47z"/>
		<path style="fill:#060633;" d="M1689.742,676.707c-37.462,0-70.812-10.678-72.919-11.367c-6.361-2.077-9.833-8.916-7.755-15.277
			c2.077-6.361,8.917-9.83,15.277-7.755c1.118,0.358,70.26,22.292,113.485,0.68c5.986-2.993,13.264-0.566,16.254,5.417
			c2.992,5.985,0.566,13.262-5.417,16.254C1730.561,673.712,1709.572,676.707,1689.742,676.707z"/>
		<path style="fill:#424BE1;" d="M1689.742,657.02c-37.462,0-70.812-10.678-72.919-11.367c-6.361-2.076-9.833-8.916-7.755-15.277
			c2.077-6.359,8.917-9.836,15.277-7.755c1.118,0.359,70.26,22.294,113.485,0.68c5.986-2.993,13.264-0.566,16.254,5.417
			c2.992,5.985,0.566,13.263-5.417,16.254C1730.561,654.025,1709.572,657.02,1689.742,657.02z"/>
		<path style="fill:#060633;" d="M1689.742,637.333c-37.462,0-70.812-10.677-72.919-11.367c-6.361-2.076-9.833-8.916-7.755-15.277
			c2.077-6.361,8.917-9.833,15.277-7.755c1.118,0.359,70.26,22.293,113.485,0.681c5.986-2.994,13.264-0.567,16.254,5.417
			c2.992,5.985,0.566,13.263-5.417,16.254C1730.561,634.338,1709.572,637.333,1689.742,637.333z"/>
	</g>
	<g>
		
			<ellipse transform="matrix(0.9871 -0.1602 0.1602 0.9871 -48.1828 164.2461)" style="fill:#DDE7FE;" cx="994.66" cy="380.981" rx="108.529" ry="108.53"/>
		<circle style="fill:#FFFFFF;" cx="992.555" cy="380.188" r="86.334"/>
		<circle style="fill:#DDE7FE;" cx="992.451" cy="379.324" r="9.666"/>
		<g>
			<path style="fill:#DDE7FE;" d="M992.451,381.243h-1.934c-1.06,0-1.918-0.858-1.918-1.918c0-1.061,0.858-1.918,1.918-1.918h0.019
				l0.09-59.567l-2.398,3.475c-0.607,0.873-1.802,1.085-2.667,0.491c-0.869-0.602-1.09-1.797-0.487-2.668l5.904-8.56
				c0.476-0.695,1.345-0.995,2.15-0.742c0.802,0.249,1.345,0.993,1.345,1.833l-0.104,67.659
				C994.369,380.385,993.507,381.243,992.451,381.243z"/>
			<path style="fill:#DDE7FE;" d="M999.078,321.592c-0.555,0-1.109-0.242-1.487-0.706l-6.523-8.008
				c-0.671-0.822-0.547-2.031,0.277-2.699c0.817-0.667,2.027-0.547,2.697,0.275l6.523,8.008c0.671,0.822,0.547,2.03-0.277,2.699
				C999.933,321.451,999.505,321.592,999.078,321.592z"/>
		</g>
		<g>
			<path style="fill:#DDE7FE;" d="M957.692,387.457c-0.502,0-1.004-0.197-1.379-0.586l-5.698-5.902
				c-0.536-0.555-0.689-1.375-0.386-2.083c0.3-0.708,0.997-1.167,1.765-1.167h0.003l45.012,0.103
				c1.057,0.002,1.915,0.86,1.915,1.918v1.933c0,1.061-0.858,1.918-1.918,1.918c-1.06,0-1.918-0.858-1.918-1.918v-0.019
				l-38.565-0.088l2.547,2.641c0.738,0.762,0.715,1.976-0.045,2.712C958.651,387.278,958.172,387.457,957.692,387.457z"/>
			<path style="fill:#DDE7FE;" d="M951.994,381.554c-0.427,0-0.858-0.143-1.214-0.433c-0.82-0.67-0.94-1.878-0.273-2.699
				l5.327-6.524c0.678-0.822,1.885-0.938,2.701-0.272c0.82,0.671,0.94,1.879,0.273,2.7l-5.327,6.524
				C953.1,381.314,952.549,381.554,951.994,381.554z"/>
		</g>
	</g>
	<g>
		<path style="fill:#7C9AF2;" d="M2629.836,611.742h-86.081c-2.084,0-3.772-1.689-3.772-3.773v-86.082
			c0-2.084,1.688-3.773,3.772-3.773h86.081c2.084,0,3.773,1.688,3.773,3.773v86.082
			C2633.609,610.053,2631.92,611.742,2629.836,611.742z M2547.528,604.196h78.535V525.66h-78.535V604.196z"/>
		<path style="fill:#7C9AF2;" d="M2586.796,591.593c-0.023,0-0.049,0-0.072,0c-1.346-0.026-2.576-0.767-3.228-1.943
			c-0.116-0.21-11.841-21.201-26.697-34.336c-1.562-1.38-1.707-3.765-0.328-5.326c1.383-1.561,3.768-1.707,5.327-0.328
			c11.15,9.859,20.373,23.387,25.033,30.853c28.34-46.207,49.213-72.676,49.43-72.948c1.292-1.632,3.663-1.908,5.3-0.614
			c1.633,1.294,1.907,3.667,0.615,5.299c-0.222,0.279-22.436,28.459-52.152,77.525
			C2589.338,590.905,2588.113,591.593,2586.796,591.593z"/>
	</g>
	<g>
		<path style="fill:#7C9AF2;" d="M2460.119,476.939h-86.08c-2.085,0-3.773-1.689-3.773-3.773v-86.082
			c0-2.084,1.688-3.773,3.773-3.773h86.08c2.084,0,3.773,1.689,3.773,3.773v86.082
			C2463.893,475.25,2462.203,476.939,2460.119,476.939z M2377.812,469.393h78.535v-78.536h-78.535V469.393z"/>
		<path style="fill:#7C9AF2;" d="M2417.079,456.79c-0.023,0-0.048,0-0.072,0c-1.346-0.026-2.576-0.767-3.228-1.943
			c-0.116-0.21-11.841-21.201-26.697-34.336c-1.562-1.38-1.707-3.765-0.328-5.326c1.383-1.562,3.768-1.707,5.326-0.328
			c11.151,9.86,20.374,23.387,25.034,30.853c28.34-46.207,49.213-72.677,49.43-72.948c1.292-1.632,3.663-1.908,5.3-0.614
			c1.633,1.294,1.907,3.667,0.615,5.3c-0.222,0.279-22.436,28.459-52.152,77.525C2419.621,456.103,2418.396,456.79,2417.079,456.79z
			"/>
	</g>
	<g>
		<polygon style="fill:#FFFFFF;" points="1090.882,682.121 941.298,682.121 941.298,952.419 1132.875,952.419 1132.875,719.306 		
			"/>
		<path style="fill:#DDE7FE;" d="M1144.699,720.504h-53.818c-0.615,0-1.112-0.498-1.112-1.113v-37.27
			c0-0.615,0.498-1.112,1.112-1.112c0.615,0,1.113,0.498,1.113,1.112v36.157h52.706c0.615,0,1.112,0.497,1.112,1.112
			C1145.811,720.006,1145.313,720.504,1144.699,720.504z"/>
		<path style="fill:#7C9AF2;" d="M1074.572,718.297H994.66c-0.615,0-1.112-0.497-1.112-1.112c0-0.615,0.497-1.113,1.112-1.113
			h79.912c0.614,0,1.112,0.498,1.112,1.113C1075.684,717.8,1075.187,718.297,1074.572,718.297z"/>
		<path style="fill:#7C9AF2;" d="M1117.79,753.174H956.361c-0.614,0-1.112-0.498-1.112-1.113c0-0.615,0.498-1.112,1.112-1.112
			h161.428c0.615,0,1.113,0.498,1.113,1.112C1118.902,752.676,1118.404,753.174,1117.79,753.174z"/>
		<path style="fill:#7C9AF2;" d="M1117.79,765.328H956.361c-0.614,0-1.112-0.498-1.112-1.112c0-0.615,0.498-1.112,1.112-1.112
			h161.428c0.615,0,1.113,0.498,1.113,1.112C1118.902,764.83,1118.404,765.328,1117.79,765.328z"/>
		<path style="fill:#7C9AF2;" d="M1117.79,782.68H956.361c-0.614,0-1.112-0.497-1.112-1.113c0-0.615,0.498-1.112,1.112-1.112
			h161.428c0.615,0,1.113,0.498,1.113,1.112C1118.902,782.183,1118.404,782.68,1117.79,782.68z"/>
		<path style="fill:#7C9AF2;" d="M1117.79,794.834H956.361c-0.614,0-1.112-0.498-1.112-1.112c0-0.615,0.498-1.112,1.112-1.112
			h161.428c0.615,0,1.113,0.498,1.113,1.112C1118.902,794.336,1118.404,794.834,1117.79,794.834z"/>
		<path style="fill:#7C9AF2;" d="M1117.79,806.989H956.361c-0.614,0-1.112-0.497-1.112-1.112c0-0.615,0.498-1.112,1.112-1.112
			h161.428c0.615,0,1.113,0.498,1.113,1.112C1118.902,806.492,1118.404,806.989,1117.79,806.989z"/>
		<path style="fill:#7C9AF2;" d="M1117.79,819.143H956.361c-0.614,0-1.112-0.497-1.112-1.112c0-0.615,0.498-1.112,1.112-1.112
			h161.428c0.615,0,1.113,0.497,1.113,1.112C1118.902,818.646,1118.404,819.143,1117.79,819.143z"/>
		<path style="fill:#7C9AF2;" d="M1117.79,865.242H956.361c-0.614,0-1.112-0.498-1.112-1.112c0-0.615,0.498-1.112,1.112-1.112
			h161.428c0.615,0,1.113,0.497,1.113,1.112C1118.902,864.744,1118.404,865.242,1117.79,865.242z"/>
		<path style="fill:#7C9AF2;" d="M1117.79,877.396H956.361c-0.614,0-1.112-0.498-1.112-1.112c0-0.615,0.498-1.113,1.112-1.113
			h161.428c0.615,0,1.113,0.498,1.113,1.113C1118.902,876.898,1118.404,877.396,1117.79,877.396z"/>
		<path style="fill:#7C9AF2;" d="M1117.79,889.551H956.361c-0.614,0-1.112-0.497-1.112-1.112c0-0.615,0.498-1.113,1.112-1.113
			h161.428c0.615,0,1.113,0.498,1.113,1.113C1118.902,889.054,1118.404,889.551,1117.79,889.551z"/>
		<path style="fill:#7C9AF2;" d="M1117.79,901.705H956.361c-0.614,0-1.112-0.497-1.112-1.112c0-0.615,0.498-1.112,1.112-1.112
			h161.428c0.615,0,1.113,0.498,1.113,1.112C1118.902,901.208,1118.404,901.705,1117.79,901.705z"/>
	</g>
</g>
</svg>
